<svg width="524" height="184" viewBox="0 0 524 184" fill="none" xmlns="http://www.w3.org/2000/svg">
<path d="M134.952 0V112.552H157.5V149.241H134.952V184H90.4131V149.241H0.5V118.621L72.0408 0H134.952ZM46.7092 112.552H90.4131V37.5172L46.7092 112.552Z" fill="#003C96"/>
<path d="M262 184C313.086 184 354.5 142.81 354.5 92C354.5 41.1898 313.086 0 262 0C210.914 0 169.5 41.1898 169.5 92C169.5 142.81 210.914 184 262 184Z" fill="#FFB900"/>
<path d="M262 138C287.681 138 308.5 117.405 308.5 92C308.5 66.5949 287.681 46 262 46C236.319 46 215.5 66.5949 215.5 92C215.5 117.405 236.319 138 262 138Z" fill="#003C96"/>
<path d="M500.952 0V112.552H523.5V149.241H500.952V184H456.413V149.241H366.5V118.621L438.041 0H500.952ZM412.709 112.552H456.413V37.5172L412.709 112.552Z" fill="#003C96"/>
</svg>
