<svg width="32" height="32" viewBox="0 0 32 32" fill="none" xmlns="http://www.w3.org/2000/svg">
<g id="Gear">
<path id="Vector" d="M16 22C19.3137 22 22 19.3137 22 16C22 12.6863 19.3137 10 16 10C12.6863 10 10 12.6863 10 16C10 19.3137 12.6863 22 16 22Z" stroke="black" stroke-width="2" stroke-linecap="round" stroke-linejoin="round"/>
<path id="Vector_2" d="M22.9625 8.1377C23.2792 8.42936 23.5792 8.72936 23.8625 9.0377L27.275 9.5252C27.831 10.4908 28.2596 11.5244 28.55 12.6002L26.475 15.3627C26.475 15.3627 26.5125 16.2127 26.475 16.6377L28.55 19.4002C28.2609 20.4764 27.8323 21.5102 27.275 22.4752L23.8625 22.9627C23.8625 22.9627 23.275 23.5752 22.9625 23.8627L22.475 27.2752C21.5094 27.8312 20.4758 28.2598 19.4 28.5502L16.6375 26.4752C16.2133 26.5127 15.7867 26.5127 15.3625 26.4752L12.6 28.5502C11.5238 28.2611 10.49 27.8325 9.52501 27.2752L9.03751 23.8627C8.72918 23.571 8.42918 23.271 8.13751 22.9627L4.72501 22.4752C4.16899 21.5096 3.74042 20.476 3.45001 19.4002L5.52501 16.6377C5.52501 16.6377 5.48751 15.7877 5.52501 15.3627L3.45001 12.6002C3.73908 11.524 4.16771 10.4902 4.72501 9.5252L8.13751 9.0377C8.42918 8.72936 8.72918 8.42936 9.03751 8.1377L9.52501 4.7252C10.4906 4.16917 11.5242 3.74061 12.6 3.4502L15.3625 5.5252C15.7867 5.48769 16.2133 5.48769 16.6375 5.5252L19.4 3.4502C20.4762 3.73926 21.51 4.1679 22.475 4.7252L22.9625 8.1377Z" stroke="black" stroke-width="2" stroke-linecap="round" stroke-linejoin="round"/>
</g>
</svg>
