<svg width="473" height="351" viewBox="0 0 473 351" fill="none" xmlns="http://www.w3.org/2000/svg">
<path d="M1 94.7814C16.9907 92.5651 26.3489 92.5651 42.3397 94.7814C112.512 104.507 99.7096 222.321 170.553 222.889C236.637 223.419 233.851 122.008 299.365 113.339C350.718 106.544 377.85 173.062 425.78 153.448C445.098 145.542 455.543 137.605 468.318 121.121" stroke="#6C83A7" stroke-opacity="0.44" stroke-width="10"/>
<rect x="1.80286" width="82.0559" height="289.949" rx="4" fill="#6C83A7" fill-opacity="0.44"/>
<rect x="129.439" y="68.0127" width="84.2881" height="221.936" rx="4" fill="#6C83A7" fill-opacity="0.44"/>
<rect x="256.631" y="8.4043" width="84.2881" height="281.596" rx="4" fill="#6C83A7" fill-opacity="0.44"/>
<rect x="384.712" y="68.0127" width="84.2881" height="221.936" rx="4" fill="#6C83A7" fill-opacity="0.44"/>
<path d="M49.1719 341.398C49.4219 341.617 49.6276 341.896 49.7891 342.234C49.9557 342.568 50.0391 343 50.0391 343.531C50.0391 344.078 49.9193 344.573 49.6797 345.016C49.4453 345.458 49.1458 345.836 48.7812 346.148C48.3646 346.503 47.8568 346.768 47.2578 346.945C46.6589 347.122 46.013 347.211 45.3203 347.211C44.5547 347.211 43.8438 347.141 43.1875 347C42.5365 346.854 42.0182 346.703 41.6328 346.547V344.812H41.75C42.2656 345.12 42.8464 345.372 43.4922 345.57C44.1432 345.763 44.763 345.859 45.3516 345.859C45.7266 345.859 46.1328 345.805 46.5703 345.695C47.0078 345.586 47.362 345.424 47.6328 345.211C47.9141 344.977 48.1172 344.716 48.2422 344.43C48.3724 344.138 48.4375 343.812 48.4375 343.453C48.4375 343.042 48.3594 342.706 48.2031 342.445C48.0469 342.18 47.8359 341.966 47.5703 341.805C47.3047 341.648 46.9818 341.536 46.6016 341.469C46.2266 341.396 45.8073 341.359 45.3438 341.359H43.7734V340.039H45.1719C46.0729 340.039 46.7969 339.875 47.3438 339.547C47.8906 339.214 48.1641 338.734 48.1641 338.109C48.1641 337.828 48.0938 337.581 47.9531 337.367C47.8177 337.154 47.6302 336.984 47.3906 336.859C47.1562 336.734 46.8932 336.646 46.6016 336.594C46.3151 336.536 45.974 336.508 45.5781 336.508C45.1719 336.508 44.7969 336.547 44.4531 336.625C44.1094 336.703 43.7839 336.794 43.4766 336.898C43.2266 336.987 42.9714 337.099 42.7109 337.234C42.4505 337.37 42.2604 337.471 42.1406 337.539H42.0391V335.828C42.4297 335.661 42.9479 335.508 43.5938 335.367C44.2396 335.227 44.8906 335.156 45.5469 335.156C46.1875 335.156 46.737 335.208 47.1953 335.312C47.6589 335.411 48.0859 335.576 48.4766 335.805C48.8828 336.055 49.1927 336.357 49.4062 336.711C49.6198 337.065 49.7266 337.477 49.7266 337.945C49.7266 338.607 49.513 339.167 49.0859 339.625C48.6641 340.083 48.1276 340.383 47.4766 340.523V340.641C47.7474 340.688 48.0365 340.773 48.3438 340.898C48.651 341.018 48.9271 341.185 49.1719 341.398ZM60.2266 349.094H58.8594V346.977H52.2969V349.094H50.9297V345.75H51.875C52.4844 344.745 52.9375 343.586 53.2344 342.273C53.5365 340.956 53.6875 339.622 53.6875 338.273H59.1719V345.75H60.2266V349.094ZM57.7031 345.75V339.508H55.0703C55.0026 340.815 54.8021 342.008 54.4688 343.086C54.1354 344.164 53.7526 345.052 53.3203 345.75H57.7031ZM69.5625 342.789H63.1328C63.1328 343.326 63.2135 343.794 63.375 344.195C63.5365 344.591 63.7578 344.917 64.0391 345.172C64.3099 345.422 64.6302 345.609 65 345.734C65.375 345.859 65.7865 345.922 66.2344 345.922C66.8281 345.922 67.4245 345.805 68.0234 345.57C68.6276 345.331 69.0573 345.096 69.3125 344.867H69.3906V346.469C68.8958 346.677 68.3906 346.852 67.875 346.992C67.3594 347.133 66.8177 347.203 66.25 347.203C64.8021 347.203 63.6719 346.812 62.8594 346.031C62.0469 345.245 61.6406 344.13 61.6406 342.688C61.6406 341.26 62.0286 340.128 62.8047 339.289C63.5859 338.451 64.612 338.031 65.8828 338.031C67.0599 338.031 67.9661 338.375 68.6016 339.062C69.2422 339.75 69.5625 340.727 69.5625 341.992V342.789ZM68.1328 341.664C68.1276 340.893 67.9323 340.297 67.5469 339.875C67.1667 339.453 66.5859 339.242 65.8047 339.242C65.0182 339.242 64.3906 339.474 63.9219 339.938C63.4583 340.401 63.1953 340.977 63.1328 341.664H68.1328ZM78.3203 346.453C77.7214 346.734 77.2057 346.927 76.7734 347.031C76.3464 347.141 75.9193 347.195 75.4922 347.195C74.8568 347.195 74.2734 347.104 73.7422 346.922C73.2109 346.734 72.7552 346.453 72.375 346.078C71.9948 345.703 71.6979 345.229 71.4844 344.656C71.276 344.083 71.1719 343.414 71.1719 342.648C71.1719 341.258 71.5573 340.148 72.3281 339.32C73.099 338.487 74.1536 338.07 75.4922 338.07C75.9974 338.07 76.4922 338.141 76.9766 338.281C77.4661 338.422 77.9141 338.594 78.3203 338.797V340.43H78.2344C77.75 340.06 77.2708 339.786 76.7969 339.609C76.3281 339.432 75.8724 339.344 75.4297 339.344C74.5599 339.344 73.8854 339.635 73.4062 340.219C72.9323 340.802 72.6953 341.612 72.6953 342.648C72.6953 343.685 72.9323 344.49 73.4062 345.062C73.8802 345.635 74.5547 345.922 75.4297 345.922C75.737 345.922 76.0417 345.883 76.3438 345.805C76.651 345.727 76.9297 345.625 77.1797 345.5C77.3776 345.401 77.5807 345.284 77.7891 345.148C78.0026 345.008 78.151 344.904 78.2344 344.836H78.3203V346.453ZM85.7891 344.32C85.7891 344.055 85.7422 343.823 85.6484 343.625C85.5599 343.422 85.4115 343.258 85.2031 343.133C84.9844 343.003 84.7344 342.924 84.4531 342.898C84.1771 342.872 83.7786 342.859 83.2578 342.859H81.8047V345.828H83.2266C83.7474 345.828 84.151 345.807 84.4375 345.766C84.724 345.719 84.9714 345.633 85.1797 345.508C85.3932 345.372 85.5469 345.214 85.6406 345.031C85.7396 344.844 85.7891 344.607 85.7891 344.32ZM87.3047 344.297C87.3047 344.719 87.2188 345.102 87.0469 345.445C86.8802 345.789 86.651 346.068 86.3594 346.281C86.0156 346.542 85.6484 346.727 85.2578 346.836C84.8672 346.945 84.3646 347 83.75 347H80.3359V338.273H81.8047V341.672H83.7891C84.4453 341.672 84.9531 341.706 85.3125 341.773C85.6771 341.841 86.0391 342.008 86.3984 342.273C86.7005 342.497 86.9271 342.784 87.0781 343.133C87.2292 343.482 87.3047 343.87 87.3047 344.297ZM101.516 339.562C101.88 339.927 102.156 340.37 102.344 340.891C102.531 341.406 102.625 342.013 102.625 342.711C102.625 344.013 102.234 345.094 101.453 345.953C100.672 346.812 99.7109 347.242 98.5703 347.242C98.0078 347.242 97.4896 347.148 97.0156 346.961C96.5417 346.768 96.138 346.474 95.8047 346.078C95.388 345.583 95.0755 344.961 94.8672 344.211C94.6641 343.456 94.5625 342.536 94.5625 341.453C94.5625 341.062 94.5807 340.667 94.6172 340.266C94.6536 339.859 94.737 339.375 94.8672 338.812C94.9714 338.328 95.1224 337.862 95.3203 337.414C95.5234 336.966 95.763 336.604 96.0391 336.328C96.4141 335.948 96.9062 335.643 97.5156 335.414C98.1302 335.18 98.9427 335.018 99.9531 334.93C100.365 334.893 100.747 334.865 101.102 334.844C101.456 334.818 101.773 334.794 102.055 334.773V336.125C101.711 336.146 101.37 336.167 101.031 336.188C100.698 336.208 100.365 336.234 100.031 336.266C99.3646 336.323 98.7604 336.432 98.2188 336.594C97.6823 336.755 97.2891 336.964 97.0391 337.219C96.763 337.495 96.5547 337.857 96.4141 338.305C96.2786 338.747 96.1901 339.169 96.1484 339.57C96.5391 339.289 96.9661 339.055 97.4297 338.867C97.8984 338.674 98.3958 338.578 98.9219 338.578C99.4115 338.578 99.8828 338.659 100.336 338.82C100.789 338.982 101.182 339.229 101.516 339.562ZM101.133 342.797C101.133 341.833 100.901 341.115 100.438 340.641C99.974 340.161 99.362 339.922 98.6016 339.922C98.1484 339.922 97.7135 339.995 97.2969 340.141C96.8802 340.281 96.4844 340.471 96.1094 340.711C96.099 340.841 96.0885 340.995 96.0781 341.172C96.0729 341.344 96.0703 341.503 96.0703 341.648C96.0703 342.555 96.1458 343.289 96.2969 343.852C96.4479 344.414 96.6615 344.862 96.9375 345.195C97.1771 345.477 97.4375 345.677 97.7188 345.797C98 345.911 98.3021 345.969 98.625 345.969C99.4115 345.969 100.026 345.685 100.469 345.117C100.911 344.549 101.133 343.776 101.133 342.797ZM112.477 338.273L107.383 350.219H105.812L107.438 346.578L103.961 338.273H105.555L108.234 344.742L110.938 338.273H112.477ZM122.32 349.094H120.953V346.977H114.391V349.094H113.023V345.75H113.969C114.578 344.745 115.031 343.586 115.328 342.273C115.63 340.956 115.781 339.622 115.781 338.273H121.266V345.75H122.32V349.094ZM119.797 345.75V339.508H117.164C117.096 340.815 116.896 342.008 116.562 343.086C116.229 344.164 115.846 345.052 115.414 345.75H119.797ZM131.898 338.273L126.805 350.219H125.234L126.859 346.578L123.383 338.273H124.977L127.656 344.742L130.359 338.273H131.898ZM140.234 339.562H137.078V347H135.609V339.562H132.453V338.273H140.234V339.562ZM154.82 342.641C154.82 344.062 154.456 345.185 153.727 346.008C152.997 346.831 152.021 347.242 150.797 347.242C149.562 347.242 148.581 346.831 147.852 346.008C147.128 345.185 146.766 344.062 146.766 342.641C146.766 341.219 147.128 340.096 147.852 339.273C148.581 338.445 149.562 338.031 150.797 338.031C152.021 338.031 152.997 338.445 153.727 339.273C154.456 340.096 154.82 341.219 154.82 342.641ZM153.305 342.641C153.305 341.51 153.083 340.672 152.641 340.125C152.198 339.573 151.583 339.297 150.797 339.297C150 339.297 149.38 339.573 148.938 340.125C148.5 340.672 148.281 341.51 148.281 342.641C148.281 343.734 148.503 344.565 148.945 345.133C149.388 345.695 150.005 345.977 150.797 345.977C151.578 345.977 152.19 345.698 152.633 345.141C153.081 344.578 153.305 343.745 153.305 342.641ZM163.516 339.562H160.359V347H158.891V339.562H155.734V338.273H163.516V339.562ZM172.477 342.641C172.477 344.062 172.112 345.185 171.383 346.008C170.654 346.831 169.677 347.242 168.453 347.242C167.219 347.242 166.237 346.831 165.508 346.008C164.784 345.185 164.422 344.062 164.422 342.641C164.422 341.219 164.784 340.096 165.508 339.273C166.237 338.445 167.219 338.031 168.453 338.031C169.677 338.031 170.654 338.445 171.383 339.273C172.112 340.096 172.477 341.219 172.477 342.641ZM170.961 342.641C170.961 341.51 170.74 340.672 170.297 340.125C169.854 339.573 169.24 339.297 168.453 339.297C167.656 339.297 167.036 339.573 166.594 340.125C166.156 340.672 165.938 341.51 165.938 342.641C165.938 343.734 166.159 344.565 166.602 345.133C167.044 345.695 167.661 345.977 168.453 345.977C169.234 345.977 169.846 345.698 170.289 345.141C170.737 344.578 170.961 343.745 170.961 342.641ZM181.172 339.562C181.536 339.927 181.812 340.37 182 340.891C182.188 341.406 182.281 342.013 182.281 342.711C182.281 344.013 181.891 345.094 181.109 345.953C180.328 346.812 179.367 347.242 178.227 347.242C177.664 347.242 177.146 347.148 176.672 346.961C176.198 346.768 175.794 346.474 175.461 346.078C175.044 345.583 174.732 344.961 174.523 344.211C174.32 343.456 174.219 342.536 174.219 341.453C174.219 341.062 174.237 340.667 174.273 340.266C174.31 339.859 174.393 339.375 174.523 338.812C174.628 338.328 174.779 337.862 174.977 337.414C175.18 336.966 175.419 336.604 175.695 336.328C176.07 335.948 176.562 335.643 177.172 335.414C177.786 335.18 178.599 335.018 179.609 334.93C180.021 334.893 180.404 334.865 180.758 334.844C181.112 334.818 181.43 334.794 181.711 334.773V336.125C181.367 336.146 181.026 336.167 180.688 336.188C180.354 336.208 180.021 336.234 179.688 336.266C179.021 336.323 178.417 336.432 177.875 336.594C177.339 336.755 176.945 336.964 176.695 337.219C176.419 337.495 176.211 337.857 176.07 338.305C175.935 338.747 175.846 339.169 175.805 339.57C176.195 339.289 176.622 339.055 177.086 338.867C177.555 338.674 178.052 338.578 178.578 338.578C179.068 338.578 179.539 338.659 179.992 338.82C180.445 338.982 180.839 339.229 181.172 339.562ZM180.789 342.797C180.789 341.833 180.557 341.115 180.094 340.641C179.63 340.161 179.018 339.922 178.258 339.922C177.805 339.922 177.37 339.995 176.953 340.141C176.536 340.281 176.141 340.471 175.766 340.711C175.755 340.841 175.745 340.995 175.734 341.172C175.729 341.344 175.727 341.503 175.727 341.648C175.727 342.555 175.802 343.289 175.953 343.852C176.104 344.414 176.318 344.862 176.594 345.195C176.833 345.477 177.094 345.677 177.375 345.797C177.656 345.911 177.958 345.969 178.281 345.969C179.068 345.969 179.682 345.685 180.125 345.117C180.568 344.549 180.789 343.776 180.789 342.797ZM192.266 342.531C192.266 343.24 192.164 343.888 191.961 344.477C191.758 345.06 191.471 345.555 191.102 345.961C190.758 346.346 190.352 346.646 189.883 346.859C189.419 347.068 188.927 347.172 188.406 347.172C187.953 347.172 187.542 347.122 187.172 347.023C186.807 346.924 186.435 346.771 186.055 346.562V350.219H184.586V338.273H186.055V339.188C186.445 338.859 186.883 338.586 187.367 338.367C187.857 338.143 188.378 338.031 188.93 338.031C189.982 338.031 190.799 338.43 191.383 339.227C191.971 340.018 192.266 341.12 192.266 342.531ZM190.75 342.57C190.75 341.518 190.57 340.732 190.211 340.211C189.852 339.69 189.299 339.43 188.555 339.43C188.133 339.43 187.708 339.521 187.281 339.703C186.854 339.885 186.445 340.125 186.055 340.422V345.367C186.471 345.555 186.828 345.682 187.125 345.75C187.427 345.818 187.768 345.852 188.148 345.852C188.966 345.852 189.604 345.576 190.062 345.023C190.521 344.471 190.75 343.654 190.75 342.57ZM201.336 347H199.875V346.07C199.745 346.159 199.568 346.284 199.344 346.445C199.125 346.602 198.911 346.727 198.703 346.82C198.458 346.94 198.177 347.039 197.859 347.117C197.542 347.201 197.169 347.242 196.742 347.242C195.956 347.242 195.289 346.982 194.742 346.461C194.195 345.94 193.922 345.276 193.922 344.469C193.922 343.807 194.062 343.273 194.344 342.867C194.63 342.456 195.036 342.133 195.562 341.898C196.094 341.664 196.732 341.505 197.477 341.422C198.221 341.339 199.021 341.276 199.875 341.234V341.008C199.875 340.674 199.815 340.398 199.695 340.18C199.581 339.961 199.414 339.789 199.195 339.664C198.987 339.544 198.737 339.464 198.445 339.422C198.154 339.38 197.849 339.359 197.531 339.359C197.146 339.359 196.716 339.411 196.242 339.516C195.768 339.615 195.279 339.76 194.773 339.953H194.695V338.461C194.982 338.383 195.396 338.297 195.938 338.203C196.479 338.109 197.013 338.062 197.539 338.062C198.154 338.062 198.688 338.115 199.141 338.219C199.599 338.318 199.995 338.49 200.328 338.734C200.656 338.974 200.906 339.284 201.078 339.664C201.25 340.044 201.336 340.516 201.336 341.078V347ZM199.875 344.852V342.422C199.427 342.448 198.898 342.487 198.289 342.539C197.685 342.591 197.206 342.667 196.852 342.766C196.43 342.885 196.089 343.073 195.828 343.328C195.568 343.578 195.438 343.924 195.438 344.367C195.438 344.867 195.589 345.245 195.891 345.5C196.193 345.75 196.654 345.875 197.273 345.875C197.789 345.875 198.26 345.776 198.688 345.578C199.115 345.375 199.51 345.133 199.875 344.852ZM215.109 347H213.336L210.539 343.016H209.828V347H208.375V343.016H207.742L204.82 347H203.125L206.492 342.43C206.237 342.294 206.01 342.102 205.812 341.852C205.62 341.602 205.443 341.224 205.281 340.719C205.141 340.276 204.974 339.969 204.781 339.797C204.589 339.625 204.273 339.539 203.836 339.539H203.422V338.273H203.961C204.607 338.273 205.125 338.404 205.516 338.664C205.906 338.924 206.219 339.38 206.453 340.031C206.5 340.167 206.557 340.323 206.625 340.5C206.698 340.672 206.76 340.818 206.812 340.938C206.984 341.333 207.203 341.615 207.469 341.781C207.74 341.943 208.042 342.034 208.375 342.055V338.273H209.828V342.055C210.161 342.034 210.464 341.94 210.734 341.773C211.01 341.607 211.234 341.328 211.406 340.938C211.464 340.807 211.526 340.656 211.594 340.484C211.667 340.312 211.724 340.161 211.766 340.031C211.995 339.391 212.302 338.938 212.688 338.672C213.073 338.406 213.591 338.273 214.242 338.273H214.781V339.539H214.367C213.924 339.539 213.604 339.63 213.406 339.812C213.214 339.995 213.052 340.297 212.922 340.719C212.776 341.182 212.602 341.544 212.398 341.805C212.201 342.06 211.984 342.253 211.75 342.383L215.109 347ZM223.711 347H222.25V346.07C222.12 346.159 221.943 346.284 221.719 346.445C221.5 346.602 221.286 346.727 221.078 346.82C220.833 346.94 220.552 347.039 220.234 347.117C219.917 347.201 219.544 347.242 219.117 347.242C218.331 347.242 217.664 346.982 217.117 346.461C216.57 345.94 216.297 345.276 216.297 344.469C216.297 343.807 216.438 343.273 216.719 342.867C217.005 342.456 217.411 342.133 217.938 341.898C218.469 341.664 219.107 341.505 219.852 341.422C220.596 341.339 221.396 341.276 222.25 341.234V341.008C222.25 340.674 222.19 340.398 222.07 340.18C221.956 339.961 221.789 339.789 221.57 339.664C221.362 339.544 221.112 339.464 220.82 339.422C220.529 339.38 220.224 339.359 219.906 339.359C219.521 339.359 219.091 339.411 218.617 339.516C218.143 339.615 217.654 339.76 217.148 339.953H217.07V338.461C217.357 338.383 217.771 338.297 218.312 338.203C218.854 338.109 219.388 338.062 219.914 338.062C220.529 338.062 221.062 338.115 221.516 338.219C221.974 338.318 222.37 338.49 222.703 338.734C223.031 338.974 223.281 339.284 223.453 339.664C223.625 340.044 223.711 340.516 223.711 341.078V347ZM222.25 344.852V342.422C221.802 342.448 221.273 342.487 220.664 342.539C220.06 342.591 219.581 342.667 219.227 342.766C218.805 342.885 218.464 343.073 218.203 343.328C217.943 343.578 217.812 343.924 217.812 344.367C217.812 344.867 217.964 345.245 218.266 345.5C218.568 345.75 219.029 345.875 219.648 345.875C220.164 345.875 220.635 345.776 221.062 345.578C221.49 345.375 221.885 345.133 222.25 344.852ZM232.953 339.562H229.797V347H228.328V339.562H225.172V338.273H232.953V339.562ZM239.93 344.32C239.93 344.055 239.883 343.823 239.789 343.625C239.701 343.422 239.552 343.258 239.344 343.133C239.125 343.003 238.875 342.924 238.594 342.898C238.318 342.872 237.919 342.859 237.398 342.859H235.945V345.828H237.367C237.888 345.828 238.292 345.807 238.578 345.766C238.865 345.719 239.112 345.633 239.32 345.508C239.534 345.372 239.688 345.214 239.781 345.031C239.88 344.844 239.93 344.607 239.93 344.32ZM241.445 344.297C241.445 344.719 241.359 345.102 241.188 345.445C241.021 345.789 240.792 346.068 240.5 346.281C240.156 346.542 239.789 346.727 239.398 346.836C239.008 346.945 238.505 347 237.891 347H234.477V338.273H235.945V341.672H237.93C238.586 341.672 239.094 341.706 239.453 341.773C239.818 341.841 240.18 342.008 240.539 342.273C240.841 342.497 241.068 342.784 241.219 343.133C241.37 343.482 241.445 343.87 241.445 344.297ZM250.148 346.453C249.549 346.734 249.034 346.927 248.602 347.031C248.174 347.141 247.747 347.195 247.32 347.195C246.685 347.195 246.102 347.104 245.57 346.922C245.039 346.734 244.583 346.453 244.203 346.078C243.823 345.703 243.526 345.229 243.312 344.656C243.104 344.083 243 343.414 243 342.648C243 341.258 243.385 340.148 244.156 339.32C244.927 338.487 245.982 338.07 247.32 338.07C247.826 338.07 248.32 338.141 248.805 338.281C249.294 338.422 249.742 338.594 250.148 338.797V340.43H250.062C249.578 340.06 249.099 339.786 248.625 339.609C248.156 339.432 247.701 339.344 247.258 339.344C246.388 339.344 245.714 339.635 245.234 340.219C244.76 340.802 244.523 341.612 244.523 342.648C244.523 343.685 244.76 344.49 245.234 345.062C245.708 345.635 246.383 345.922 247.258 345.922C247.565 345.922 247.87 345.883 248.172 345.805C248.479 345.727 248.758 345.625 249.008 345.5C249.206 345.401 249.409 345.284 249.617 345.148C249.831 345.008 249.979 344.904 250.062 344.836H250.148V346.453ZM258.867 347H257.398V343.539H255.672L252.969 347H251.242L254.18 343.398C253.424 343.19 252.872 342.872 252.523 342.445C252.174 342.013 252 341.448 252 340.75C252 340.286 252.104 339.893 252.312 339.57C252.521 339.247 252.784 338.984 253.102 338.781C253.414 338.583 253.773 338.451 254.18 338.383C254.586 338.31 255.029 338.273 255.508 338.273H258.867V347ZM257.398 342.383V339.445H255.547C255.146 339.445 254.857 339.458 254.68 339.484C254.503 339.51 254.31 339.581 254.102 339.695C253.898 339.81 253.747 339.966 253.648 340.164C253.555 340.357 253.508 340.568 253.508 340.797C253.508 341.083 253.536 341.315 253.594 341.492C253.656 341.669 253.781 341.836 253.969 341.992C254.161 342.143 254.396 342.247 254.672 342.305C254.948 342.357 255.255 342.383 255.594 342.383H257.398ZM273.398 339.562H268.852V347H267.383V338.273H273.398V339.562ZM282.609 342.531C282.609 343.24 282.508 343.888 282.305 344.477C282.102 345.06 281.815 345.555 281.445 345.961C281.102 346.346 280.695 346.646 280.227 346.859C279.763 347.068 279.271 347.172 278.75 347.172C278.297 347.172 277.885 347.122 277.516 347.023C277.151 346.924 276.779 346.771 276.398 346.562V350.219H274.93V338.273H276.398V339.188C276.789 338.859 277.227 338.586 277.711 338.367C278.201 338.143 278.721 338.031 279.273 338.031C280.326 338.031 281.143 338.43 281.727 339.227C282.315 340.018 282.609 341.12 282.609 342.531ZM281.094 342.57C281.094 341.518 280.914 340.732 280.555 340.211C280.195 339.69 279.643 339.43 278.898 339.43C278.477 339.43 278.052 339.521 277.625 339.703C277.198 339.885 276.789 340.125 276.398 340.422V345.367C276.815 345.555 277.172 345.682 277.469 345.75C277.771 345.818 278.112 345.852 278.492 345.852C279.31 345.852 279.948 345.576 280.406 345.023C280.865 344.471 281.094 343.654 281.094 342.57ZM291.68 347H290.219V346.07C290.089 346.159 289.911 346.284 289.688 346.445C289.469 346.602 289.255 346.727 289.047 346.82C288.802 346.94 288.521 347.039 288.203 347.117C287.885 347.201 287.513 347.242 287.086 347.242C286.299 347.242 285.633 346.982 285.086 346.461C284.539 345.94 284.266 345.276 284.266 344.469C284.266 343.807 284.406 343.273 284.688 342.867C284.974 342.456 285.38 342.133 285.906 341.898C286.438 341.664 287.076 341.505 287.82 341.422C288.565 341.339 289.365 341.276 290.219 341.234V341.008C290.219 340.674 290.159 340.398 290.039 340.18C289.924 339.961 289.758 339.789 289.539 339.664C289.331 339.544 289.081 339.464 288.789 339.422C288.497 339.38 288.193 339.359 287.875 339.359C287.49 339.359 287.06 339.411 286.586 339.516C286.112 339.615 285.622 339.76 285.117 339.953H285.039V338.461C285.326 338.383 285.74 338.297 286.281 338.203C286.823 338.109 287.357 338.062 287.883 338.062C288.497 338.062 289.031 338.115 289.484 338.219C289.943 338.318 290.339 338.49 290.672 338.734C291 338.974 291.25 339.284 291.422 339.664C291.594 340.044 291.68 340.516 291.68 341.078V347ZM290.219 344.852V342.422C289.771 342.448 289.242 342.487 288.633 342.539C288.029 342.591 287.549 342.667 287.195 342.766C286.773 342.885 286.432 343.073 286.172 343.328C285.911 343.578 285.781 343.924 285.781 344.367C285.781 344.867 285.932 345.245 286.234 345.5C286.536 345.75 286.997 345.875 287.617 345.875C288.133 345.875 288.604 345.776 289.031 345.578C289.458 345.375 289.854 345.133 290.219 344.852ZM305.648 342.406C305.648 343.182 305.549 343.87 305.352 344.469C305.154 345.062 304.891 345.552 304.562 345.938C304.24 346.323 303.867 346.617 303.445 346.82C303.023 347.023 302.581 347.125 302.117 347.125C301.768 347.125 301.464 347.065 301.203 346.945C300.948 346.826 300.719 346.716 300.516 346.617V350.219H299.062V346.617C298.745 346.773 298.482 346.898 298.273 346.992C298.07 347.081 297.75 347.125 297.312 347.125C296.307 347.125 295.492 346.732 294.867 345.945C294.242 345.159 293.93 344.065 293.93 342.664C293.93 341.93 294.031 341.276 294.234 340.703C294.438 340.125 294.703 339.641 295.031 339.25C295.349 338.87 295.721 338.581 296.148 338.383C296.581 338.18 297.01 338.078 297.438 338.078C297.75 338.078 298.034 338.128 298.289 338.227C298.549 338.32 298.807 338.445 299.062 338.602V334.844H300.516V338.602C300.755 338.461 301.036 338.339 301.359 338.234C301.682 338.13 302.008 338.078 302.336 338.078C303.367 338.078 304.177 338.469 304.766 339.25C305.354 340.026 305.648 341.078 305.648 342.406ZM304.141 342.57C304.141 341.576 303.964 340.789 303.609 340.211C303.255 339.633 302.724 339.344 302.016 339.344C301.729 339.344 301.49 339.367 301.297 339.414C301.104 339.461 300.844 339.549 300.516 339.68V345.5C300.76 345.615 300.964 345.706 301.125 345.773C301.292 345.836 301.526 345.867 301.828 345.867C302.562 345.867 303.13 345.586 303.531 345.023C303.938 344.456 304.141 343.638 304.141 342.57ZM299.062 345.5V339.68C298.859 339.586 298.654 339.508 298.445 339.445C298.237 339.378 298.005 339.344 297.75 339.344C297.047 339.344 296.484 339.612 296.062 340.148C295.646 340.685 295.438 341.5 295.438 342.594C295.438 343.609 295.622 344.409 295.992 344.992C296.367 345.576 296.906 345.867 297.609 345.867C297.885 345.867 298.141 345.831 298.375 345.758C298.615 345.68 298.844 345.594 299.062 345.5ZM315.312 347H313.859V340.445L309.289 347H307.961V338.273H309.414V344.734L313.938 338.273H315.312V347ZM326.086 347H324.164L320.539 343H319.742V347H318.273V338.273H319.742V342.039C320.227 342.039 320.617 341.953 320.914 341.781C321.211 341.604 321.464 341.323 321.672 340.938C321.745 340.797 321.815 340.648 321.883 340.492C321.956 340.331 322.026 340.177 322.094 340.031C322.365 339.443 322.703 339.003 323.109 338.711C323.516 338.419 324.099 338.273 324.859 338.273H325.531V339.539H324.883C324.471 339.539 324.148 339.628 323.914 339.805C323.685 339.977 323.477 340.281 323.289 340.719C323.081 341.208 322.859 341.576 322.625 341.82C322.396 342.06 322.151 342.242 321.891 342.367L326.086 347ZM335.031 347H333.578V340.445L329.008 347H327.68V338.273H329.133V344.734L333.656 338.273H335.031V347ZM350.906 347H349.453V340.445L344.883 347H343.555V338.273H345.008V344.734L349.531 338.273H350.906V347ZM365.844 339.562H362.688V347H361.219V339.562H358.062V338.273H365.844V339.562ZM374.148 347H372.688V346.07C372.557 346.159 372.38 346.284 372.156 346.445C371.938 346.602 371.724 346.727 371.516 346.82C371.271 346.94 370.99 347.039 370.672 347.117C370.354 347.201 369.982 347.242 369.555 347.242C368.768 347.242 368.102 346.982 367.555 346.461C367.008 345.94 366.734 345.276 366.734 344.469C366.734 343.807 366.875 343.273 367.156 342.867C367.443 342.456 367.849 342.133 368.375 341.898C368.906 341.664 369.544 341.505 370.289 341.422C371.034 341.339 371.833 341.276 372.688 341.234V341.008C372.688 340.674 372.628 340.398 372.508 340.18C372.393 339.961 372.227 339.789 372.008 339.664C371.799 339.544 371.549 339.464 371.258 339.422C370.966 339.38 370.661 339.359 370.344 339.359C369.958 339.359 369.529 339.411 369.055 339.516C368.581 339.615 368.091 339.76 367.586 339.953H367.508V338.461C367.794 338.383 368.208 338.297 368.75 338.203C369.292 338.109 369.826 338.062 370.352 338.062C370.966 338.062 371.5 338.115 371.953 338.219C372.411 338.318 372.807 338.49 373.141 338.734C373.469 338.974 373.719 339.284 373.891 339.664C374.062 340.044 374.148 340.516 374.148 341.078V347ZM372.688 344.852V342.422C372.24 342.448 371.711 342.487 371.102 342.539C370.497 342.591 370.018 342.667 369.664 342.766C369.242 342.885 368.901 343.073 368.641 343.328C368.38 343.578 368.25 343.924 368.25 344.367C368.25 344.867 368.401 345.245 368.703 345.5C369.005 345.75 369.466 345.875 370.086 345.875C370.602 345.875 371.073 345.776 371.5 345.578C371.927 345.375 372.323 345.133 372.688 344.852ZM383.391 339.562C383.755 339.927 384.031 340.37 384.219 340.891C384.406 341.406 384.5 342.013 384.5 342.711C384.5 344.013 384.109 345.094 383.328 345.953C382.547 346.812 381.586 347.242 380.445 347.242C379.883 347.242 379.365 347.148 378.891 346.961C378.417 346.768 378.013 346.474 377.68 346.078C377.263 345.583 376.951 344.961 376.742 344.211C376.539 343.456 376.438 342.536 376.438 341.453C376.438 341.062 376.456 340.667 376.492 340.266C376.529 339.859 376.612 339.375 376.742 338.812C376.846 338.328 376.997 337.862 377.195 337.414C377.398 336.966 377.638 336.604 377.914 336.328C378.289 335.948 378.781 335.643 379.391 335.414C380.005 335.18 380.818 335.018 381.828 334.93C382.24 334.893 382.622 334.865 382.977 334.844C383.331 334.818 383.648 334.794 383.93 334.773V336.125C383.586 336.146 383.245 336.167 382.906 336.188C382.573 336.208 382.24 336.234 381.906 336.266C381.24 336.323 380.635 336.432 380.094 336.594C379.557 336.755 379.164 336.964 378.914 337.219C378.638 337.495 378.43 337.857 378.289 338.305C378.154 338.747 378.065 339.169 378.023 339.57C378.414 339.289 378.841 339.055 379.305 338.867C379.773 338.674 380.271 338.578 380.797 338.578C381.286 338.578 381.758 338.659 382.211 338.82C382.664 338.982 383.057 339.229 383.391 339.562ZM383.008 342.797C383.008 341.833 382.776 341.115 382.312 340.641C381.849 340.161 381.237 339.922 380.477 339.922C380.023 339.922 379.589 339.995 379.172 340.141C378.755 340.281 378.359 340.471 377.984 340.711C377.974 340.841 377.964 340.995 377.953 341.172C377.948 341.344 377.945 341.503 377.945 341.648C377.945 342.555 378.021 343.289 378.172 343.852C378.323 344.414 378.536 344.862 378.812 345.195C379.052 345.477 379.312 345.677 379.594 345.797C379.875 345.911 380.177 345.969 380.5 345.969C381.286 345.969 381.901 345.685 382.344 345.117C382.786 344.549 383.008 343.776 383.008 342.797ZM393.844 347H392.375V339.508H389.117C389.102 339.94 389.086 340.357 389.07 340.758C389.055 341.159 389.039 341.521 389.023 341.844C388.987 342.714 388.927 343.409 388.844 343.93C388.76 344.445 388.651 344.875 388.516 345.219C388.391 345.542 388.25 345.805 388.094 346.008C387.943 346.206 387.779 346.385 387.602 346.547C387.424 346.703 387.227 346.82 387.008 346.898C386.794 346.977 386.56 347.016 386.305 347.016C386.216 347.016 386.086 347.013 385.914 347.008C385.747 347.003 385.638 347 385.586 347V345.719H385.664C385.706 345.719 385.766 345.721 385.844 345.727C385.922 345.732 385.987 345.734 386.039 345.734C386.164 345.734 386.292 345.716 386.422 345.68C386.557 345.643 386.672 345.576 386.766 345.477C387.031 345.216 387.245 344.776 387.406 344.156C387.568 343.536 387.674 342.641 387.727 341.469C387.747 341.042 387.766 340.536 387.781 339.953C387.802 339.365 387.82 338.805 387.836 338.273H393.844V347ZM404.094 347H402.641V340.445L398.07 347H396.742V338.273H398.195V344.734L402.719 338.273H404.094V347ZM413.914 347H406.992V338.273H408.461V345.734H412.758V338.273H414.227V345.734H415.281V349.094H413.914V347ZM422.68 344.32C422.68 344.055 422.633 343.823 422.539 343.625C422.451 343.422 422.302 343.258 422.094 343.133C421.875 343.003 421.625 342.924 421.344 342.898C421.068 342.872 420.669 342.859 420.148 342.859H418.773V345.828H420.117C420.638 345.828 421.042 345.807 421.328 345.766C421.615 345.719 421.862 345.633 422.07 345.508C422.284 345.372 422.438 345.214 422.531 345.031C422.63 344.844 422.68 344.607 422.68 344.32ZM424.195 344.297C424.195 344.719 424.109 345.102 423.938 345.445C423.771 345.789 423.542 346.068 423.25 346.281C422.906 346.542 422.539 346.727 422.148 346.836C421.758 346.945 421.255 347 420.641 347H417.305V338.273H418.773V341.672H420.68C421.336 341.672 421.844 341.706 422.203 341.773C422.568 341.841 422.93 342.008 423.289 342.273C423.591 342.497 423.818 342.784 423.969 343.133C424.12 343.482 424.195 343.87 424.195 344.297ZM425.656 338.273H427.125V347H425.656V338.273Z" fill="#2C2A29"/>
</svg>
