<svg width="34" height="40" viewBox="0 0 34 40" fill="none" xmlns="http://www.w3.org/2000/svg">
<path d="M0 27.8165C3.18828 35.2049 10.5861 40 18.756 40C15.5678 32.6116 8.16996 27.8165 0 27.8165Z" fill="#00BE64"/>
<path d="M18.7311 29.9939C27.1639 29.9939 34 23.2795 34 14.9969C34 6.71436 27.1639 0 18.7311 0C10.2984 0 3.46228 6.71436 3.46228 14.9969C3.46228 23.2795 10.2984 29.9939 18.7311 29.9939Z" fill="#FFB900"/>
<path d="M18.756 40C24.759 40 30.189 36.5505 32.6549 31.1927C26.6769 31.1927 21.222 34.6422 18.756 40Z" fill="#00BE64"/>
<path d="M18.7311 22.5077C22.9544 22.5077 26.378 19.145 26.378 14.997C26.378 10.8489 22.9544 7.48627 18.7311 7.48627C14.5079 7.48627 11.0842 10.8489 11.0842 14.997C11.0842 19.145 14.5079 22.5077 18.7311 22.5077Z" fill="#003C96"/>
</svg>
