<svg width="164" height="38" viewBox="0 0 164 38" fill="none" xmlns="http://www.w3.org/2000/svg">
<g clip-path="url(#clip0_673_2093)">
<path d="M0 26.2305C2.91192 33.0647 9.66847 37.5002 17.1303 37.5002C14.2183 30.6659 7.46178 26.2305 0 26.2305Z" fill="#00BE64"/>
<path d="M17.1075 28.2443C24.8093 28.2443 31.0529 22.0336 31.0529 14.3722C31.0529 6.71078 24.8093 0.5 17.1075 0.5C9.40571 0.5 3.16217 6.71078 3.16217 14.3722C3.16217 22.0336 9.40571 28.2443 17.1075 28.2443Z" fill="#FFB900"/>
<path d="M17.1302 37.5003C22.6128 37.5003 27.5722 34.3095 29.8244 29.3535C24.3645 29.3535 19.3824 32.5443 17.1302 37.5003Z" fill="#00BE64"/>
<path d="M17.1075 21.3196C20.9647 21.3196 24.0915 18.2091 24.0915 14.3722C24.0915 10.5353 20.9647 7.4248 17.1075 7.4248C13.2503 7.4248 10.1234 10.5353 10.1234 14.3722C10.1234 18.2091 13.2503 21.3196 17.1075 21.3196Z" fill="#003C96"/>
<path d="M106.854 14.3719H112.677V36.8661H106.854V28.1083H96.6619V36.8661H90.8381V14.3719H96.6619V22.6545H106.854V14.3719ZM115.43 19.9615H122.687V36.8887H128.534V19.9615H135.7V14.3719H115.43V19.9615ZM164 31.978V36.753C162.999 37.2508 161.771 37.4998 160.315 37.4998C157.289 37.4998 155.765 36.1872 155.15 34.0826L155.059 34.2184C153.285 36.4135 150.851 37.4998 147.689 37.4998C144.663 37.4998 142.07 36.3683 139.908 34.0826C137.793 31.797 136.701 28.9456 136.701 25.619C136.701 22.2924 137.793 19.5089 139.908 17.2007C142.07 14.915 144.663 13.7383 147.689 13.7383C150.714 13.7383 153.08 14.734 154.832 16.7481V14.3719H160.679V30.2808C160.679 31.6386 161.293 32.3401 162.544 32.3401C163.022 32.3627 163.545 32.227 164 31.978ZM155.037 25.619C155.037 23.7634 154.445 22.2472 153.217 21.0704C152.034 19.8484 150.555 19.26 148.735 19.26C146.915 19.26 145.437 19.8484 144.254 21.0704C143.071 22.2472 142.479 23.7634 142.479 25.619C142.479 27.4747 143.071 28.9909 144.254 30.2129C145.437 31.3897 146.915 31.978 148.735 31.978C150.555 31.978 152.034 31.3897 153.217 30.2129C154.445 28.9909 155.037 27.4747 155.037 25.619ZM42.7687 14.3719L42.6095 22.8129C42.564 26.23 42.4503 27.9273 41.9498 29.8735C41.4948 31.7291 40.6303 32.2496 39.2653 32.2496C38.8559 32.2722 38.4464 32.2043 38.0596 32.0912V36.8661C38.5146 37.115 39.2653 37.2282 40.2663 37.2282C44.3612 37.115 46.3631 35.1689 47.3641 31.7065C48.0693 29.2398 48.1831 27.3389 48.3196 24.4875L48.4561 19.9163H55.6904V36.8209H61.5142V14.3719H42.7687ZM70.8642 27.1352C71.5012 30.9823 74.5496 32.227 77.6662 32.227C79.7137 32.227 81.8749 31.4349 83.1943 30.2355L86.7887 33.8337C84.6503 36.2098 81.6474 37.4998 77.5525 37.4998C71.8196 37.4998 64.9266 34.1505 64.9266 25.619C64.9266 17.0875 71.5694 13.7383 77.2112 13.7383C84.3545 13.7383 87.3119 17.0875 87.3119 20.8215C87.3347 26.9542 79.5089 29.7603 70.8642 27.1352ZM80.9876 21.4777C80.9876 19.7352 79.2587 18.9658 77.3022 18.9658C74.3221 18.9658 71.7514 20.2105 70.9779 23.4239C77.052 25.1664 80.9876 23.8539 80.9876 21.4777Z" fill="white"/>
</g>
<defs>
<clipPath id="clip0_673_2093">
<rect width="164" height="37" fill="white" transform="translate(0 0.5)"/>
</clipPath>
</defs>
</svg>
