<svg width="32" height="33" viewBox="0 0 32 33" fill="none" xmlns="http://www.w3.org/2000/svg">
<path d="M2.66663 4.6666H10.6666C12.0811 4.6666 13.4377 5.2285 14.4379 6.22869C15.4381 7.22889 16 8.58544 16 9.99993V28.6666C16 27.6057 15.5785 26.5883 14.8284 25.8382C14.0782 25.088 13.0608 24.6666 12 24.6666H2.66663V4.6666Z" stroke="#001E64" stroke-width="2" stroke-linecap="round" stroke-linejoin="round"/>
<path d="M29.3333 4.6666H21.3333C19.9188 4.6666 18.5622 5.2285 17.562 6.22869C16.5618 7.22889 15.9999 8.58544 15.9999 9.99993V28.6666C15.9999 27.6057 16.4214 26.5883 17.1715 25.8382C17.9217 25.088 18.9391 24.6666 19.9999 24.6666H29.3333V4.6666Z" stroke="#001E64" stroke-width="2" stroke-linecap="round" stroke-linejoin="round"/>
</svg>
