<svg width="32" height="33" viewBox="0 0 32 33" fill="none" xmlns="http://www.w3.org/2000/svg">
<path d="M29 26.6667C29 26.9319 28.8946 27.1862 28.7071 27.3738C28.5196 27.5613 28.2652 27.6667 28 27.6667H4C3.73478 27.6667 3.48043 27.5613 3.29289 27.3738C3.10536 27.1862 3 26.9319 3 26.6667V6.66666C3 6.40144 3.10536 6.14709 3.29289 5.95955C3.48043 5.77201 3.73478 5.66666 4 5.66666C4.26522 5.66666 4.51957 5.77201 4.70711 5.95955C4.89464 6.14709 5 6.40144 5 6.66666V25.6667H28C28.2652 25.6667 28.5196 25.772 28.7071 25.9595C28.8946 26.1471 29 26.4014 29 26.6667ZM16.5 20.6667C16.7967 20.6667 17.0867 20.5787 17.3334 20.4139C17.58 20.249 17.7723 20.0148 17.8858 19.7407C17.9993 19.4666 18.0291 19.165 17.9712 18.874C17.9133 18.583 17.7704 18.3158 17.5607 18.106C17.3509 17.8962 17.0836 17.7534 16.7926 17.6955C16.5017 17.6376 16.2001 17.6673 15.926 17.7808C15.6519 17.8944 15.4176 18.0866 15.2528 18.3333C15.088 18.58 15 18.87 15 19.1667C15 19.5645 15.158 19.946 15.4393 20.2273C15.7206 20.5086 16.1022 20.6667 16.5 20.6667ZM13.5 13.6667C13.7967 13.6667 14.0867 13.5787 14.3334 13.4139C14.58 13.249 14.7723 13.0148 14.8858 12.7407C14.9994 12.4666 15.0291 12.165 14.9712 11.874C14.9133 11.583 14.7704 11.3158 14.5607 11.106C14.3509 10.8962 14.0836 10.7534 13.7926 10.6955C13.5017 10.6376 13.2001 10.6673 12.926 10.7808C12.6519 10.8944 12.4176 11.0866 12.2528 11.3333C12.088 11.58 12 11.87 12 12.1667C12 12.5645 12.158 12.946 12.4393 13.2273C12.7206 13.5086 13.1022 13.6667 13.5 13.6667ZM9.5 22.6667C9.79667 22.6667 10.0867 22.5787 10.3334 22.4139C10.58 22.249 10.7723 22.0148 10.8858 21.7407C10.9994 21.4666 11.0291 21.165 10.9712 20.874C10.9133 20.583 10.7704 20.3158 10.5607 20.106C10.3509 19.8962 10.0836 19.7534 9.79264 19.6955C9.50166 19.6376 9.20006 19.6673 8.92597 19.7808C8.65189 19.8944 8.41762 20.0866 8.2528 20.3333C8.08797 20.58 8 20.87 8 21.1667C8 21.5645 8.15804 21.946 8.43934 22.2273C8.72064 22.5086 9.10218 22.6667 9.5 22.6667ZM21.5 16.6667C21.7967 16.6667 22.0867 16.5787 22.3334 16.4139C22.58 16.249 22.7723 16.0148 22.8858 15.7407C22.9993 15.4666 23.0291 15.165 22.9712 14.874C22.9133 14.583 22.7704 14.3158 22.5607 14.106C22.3509 13.8962 22.0836 13.7534 21.7926 13.6955C21.5017 13.6376 21.2001 13.6673 20.926 13.7808C20.6519 13.8944 20.4176 14.0866 20.2528 14.3333C20.088 14.58 20 14.87 20 15.1667C20 15.5645 20.158 15.946 20.4393 16.2273C20.7206 16.5086 21.1022 16.6667 21.5 16.6667ZM24.5 11.6667C24.7967 11.6667 25.0867 11.5787 25.3334 11.4139C25.58 11.249 25.7723 11.0148 25.8858 10.7407C25.9993 10.4666 26.0291 10.165 25.9712 9.87402C25.9133 9.58305 25.7704 9.31577 25.5607 9.106C25.3509 8.89622 25.0836 8.75336 24.7926 8.69548C24.5017 8.6376 24.2001 8.66731 23.926 8.78084C23.6519 8.89437 23.4176 9.08663 23.2528 9.3333C23.088 9.57998 23 9.86998 23 10.1667C23 10.5645 23.158 10.946 23.4393 11.2273C23.7206 11.5086 24.1022 11.6667 24.5 11.6667ZM22 21.1667C22 21.4633 22.088 21.7533 22.2528 22C22.4176 22.2467 22.6519 22.4389 22.926 22.5525C23.2001 22.666 23.5017 22.6957 23.7926 22.6378C24.0836 22.58 24.3509 22.4371 24.5607 22.2273C24.7704 22.0175 24.9133 21.7503 24.9712 21.4593C25.0291 21.1683 24.9993 20.8667 24.8858 20.5926C24.7723 20.3185 24.58 20.0843 24.3334 19.9195C24.0867 19.7546 23.7967 19.6667 23.5 19.6667C23.1022 19.6667 22.7206 19.8247 22.4393 20.106C22.158 20.3873 22 20.7688 22 21.1667Z" fill="#001E64"/>
</svg>
